<?xml version="1.0"?><svg fill="#FFFFFF" xmlns="http://www.w3.org/2000/svg"  viewBox="0 0 24 24" width="48px" height="48px">    <path d="M 4 4 C 2.895 4 2 4.895 2 6 L 2 18 C 2 19.105 2.895 20 4 20 L 20 20 C 21.105 20 22 19.105 22 18 L 22 6 C 22 4.895 21.105 4 20 4 L 4 4 z M 4 6 L 20 6 L 20 18 L 4 18 L 4 6 z M 10 8 C 7.76 8 6 9.76 6 12 C 6 14.24 7.76 16 10 16 C 12.24 16 14 14.24 14 12 C 14 9.76 12.24 8 10 8 z M 15 8 L 15 10 L 18 10 L 18 8 L 15 8 z M 10 10 C 11.105 10 12 10.895 12 12 C 12 13.105 11.105 14 10 14 C 8.895 14 8 13.105 8 12 C 8 10.895 8.895 10 10 10 z"/></svg>