<svg width="111.07" height="122.88" xmlns="http://www.w3.org/2000/svg" xml:space="preserve" fill="white" version="1.1">

 <g>
  <title>Layer 1</title>
  <g fill="#DDDDDD" id="svg_1">
   <path fill="#ffffff" id="svg_2" clip-rule="evenodd" fill-rule="evenodd" d="m97.67,20.81l0,0l0.01,0.02c3.7,0.01 7.04,1.51 9.46,3.93c2.4,2.41 3.9,5.74 3.9,9.42l0.02,0l0,0.02l0,75.28l0,0.01l-0.02,0c-0.01,3.68 -1.51,7.03 -3.93,9.46c-2.41,2.4 -5.74,3.9 -9.42,3.9l0,0.02l-0.02,0l-59.19,0l-0.01,0l0,-0.02c-3.69,-0.01 -7.04,-1.5 -9.46,-3.93c-2.4,-2.41 -3.9,-5.74 -3.91,-9.42l0,0c0,-25.96 0,-49.34 0,-75.3l0,-0.01l0.02,0c0.01,-3.69 1.52,-7.04 3.94,-9.46c2.41,-2.4 5.73,-3.9 9.42,-3.91l0,-0.02l0.02,0c19.72,0.01 39.45,0.01 59.17,0.01l0,0zm-97.65,54.57l-0.02,-61.99l0,-0.01l0.02,0c0.01,-3.69 1.52,-7.04 3.93,-9.46c2.41,-2.4 5.74,-3.9 9.42,-3.91l0,-0.01l0.02,0l59.19,0c7.69,0 8.9,9.96 0.01,10.16l-59.19,0l-0.02,0l0,-0.02c-0.88,0 -1.68,0.37 -2.27,0.97c-0.59,0.58 -0.96,1.4 -0.96,2.27l0.02,0l0,0.01l0,3.17c0,19.61 0,39.21 0,58.81c0,8.26 -10.15,8.72 -10.15,0.01l0,0zm100.89,34.11l0,-75.29l0,-0.02l0.02,0c0,-0.87 -0.37,-1.68 -0.97,-2.27c-0.59,-0.58 -1.4,-0.96 -2.28,-0.96l0,0.02l-0.01,0l-59.19,0l-0.02,0l0,-0.02c-0.88,0 -1.68,0.38 -2.27,0.97c-0.59,0.58 -0.96,1.4 -0.96,2.27l0.02,0l0,0.01l0,75.28l0,0.02l-0.02,0c0,0.88 0.38,1.68 0.97,2.27c0.59,0.59 1.4,0.96 2.27,0.96l0,-0.02l0.01,0l59.19,0l0.02,0l0,0.02c0.87,0 1.68,-0.38 2.27,-0.97c0.59,-0.58 0.96,-1.4 0.96,-2.27l-0.01,0l0,0l0,0l0,0z" class="st0"/>
  </g>
 </g>
</svg>